HIERARCHY
ROOT Hips
{
  OFFSET 0 0 0
  CHANNELS 6 Xposition Yposition Zposition Zrotation Yrotation Xrotation
  JOINT LeftThigh
  {
    OFFSET 8.409438 0 -5.917753
    CHANNELS 3 Zrotation Yrotation Xrotation
    JOINT LeftLeg
    {
      OFFSET 0 0 -42.358652
      CHANNELS 3 Zrotation Yrotation Xrotation
      JOINT LeftFoot
      {
        OFFSET 0 0 -39.357303
        CHANNELS 3 Zrotation Yrotation Xrotation
      }
    }
  }
  JOINT RightThigh
  {
    OFFSET -8.409438 0 -5.917753
    CHANNELS 3 Zrotation Yrotation Xrotation
    JOINT RightLeg
    {
      OFFSET 0 0 -42.358652
      CHANNELS 3 Zrotation Yrotation Xrotation
      JOINT RightFoot
      {
        OFFSET 0 0 -39.357303
        CHANNELS 3 Zrotation Yrotation Xrotation
      }
    }
  }
  JOINT SpineLow
  {
    OFFSET 0 0 4.719101
    CHANNELS 3 Zrotation Yrotation Xrotation
    JOINT SpineMid
    {
      OFFSET 0 0 12.899191
      CHANNELS 3 Zrotation Yrotation Xrotation
      JOINT Chest
      {
        OFFSET 0 0 12.899191
        CHANNELS 3 Zrotation Yrotation Xrotation
        JOINT LeftShoulder
        {
          OFFSET 7.550562 1.41573 9.438202
          CHANNELS 3 Zrotation Yrotation Xrotation
          JOINT LeftArm
          {
            OFFSET 9.155056 0 4.247191
            CHANNELS 3 Zrotation Yrotation Xrotation
            JOINT LeftForearm
            {
              OFFSET 0 0 25.771955
              CHANNELS 3 Zrotation Yrotation Xrotation
              JOINT LeftHand
              {
                OFFSET 0 0 25.197169
                CHANNELS 3 Zrotation Yrotation Xrotation
              }
            }
          }
        }
        JOINT RightShoulder
        {
          OFFSET -7.550562 1.41573 9.438202
          CHANNELS 3 Zrotation Yrotation Xrotation
          JOINT RightArm
          {
            OFFSET -9.155056 0 4.247191
            CHANNELS 3 Zrotation Yrotation Xrotation
            JOINT RightForearm
            {
              OFFSET 0 0 -25.771955
              CHANNELS 3 Zrotation Yrotation Xrotation
              JOINT RightHand
              {
                OFFSET 0 0 -25.197169
                CHANNELS 3 Zrotation Yrotation Xrotation
              }
            }
          }
        }
        JOINT Neck
        {
          OFFSET 0 0 15.101124
          CHANNELS 3 Zrotation Yrotation Xrotation
          JOINT Head
          {
            OFFSET 0 0 11.325843
            CHANNELS 3 Zrotation Yrotation Xrotation
            End Site
            {
              OFFSET 0 0 14.157303
            }
          }
        }
      }
    }
  }
}
MOTION
Frames: 8
Frame Time: 0.0
0.0  93.25843  0.0  -1.626632  -21.101598  -90.829007  35.665494  -20.988968  -24.807774  2.445401  10.292096  23.990958  2.650098  1.125398  1.963068  3.493343  15.127095  10.704722  -30.985907  -4.961096  5.457356  4.263897  3.866508  -3.017907  3.03885  -0.750765  -0.492841  8.32362  -1.986441  -1.43934  8.32362  -1.986441  -1.439341  -30.23497  17.300881  -4.331697  -162.786905  65.353053  -97.801964  -33.84809  -5.888975  74.468877  46.857491  -13.863866  7.721659  0.574568  -12.436551  19.263324  104.590006  35.704188  29.609534  -25.267397  -12.315294  -108.847568  74.433818  27.435609  14.782016  8.753027  0.92616  10.409746  6.551113  0.844242  7.795781  
0.0  93.25843  0.0  -1.253581  -21.567285  -91.10298  37.218074  -20.640364  -24.682773  3.025543  10.752449  24.236121  2.205162  1.307342  1.740578  4.406118  15.395196  11.361807  -31.781911  -5.081741  4.980868  4.346688  3.663252  -2.959325  3.287662  -0.667541  -0.495439  9.001696  -1.753416  -1.442315  9.001697  -1.753416  -1.442315  -29.927476  17.301506  -4.63101  -166.583203  64.815917  -101.089487  -33.438124  -5.695808  73.482658  47.54434  -13.674509  7.192816  0.7973  -12.906716  19.023249  104.250306  36.996221  29.209545  -26.1211  -12.196125  -107.879104  74.697786  27.08252  14.633086  8.146068  0.686965  10.464184  6.099841  0.655101  7.840548  
0.0  93.25843  0.0  -1.129728  -20.985923  -91.080446  37.673068  -20.364003  -24.676191  3.790991  11.168484  24.312988  2.0097  1.392332  1.680312  4.091694  15.585892  11.731482  -32.17429  -5.130235  4.620907  4.211347  3.558493  -2.946152  3.405165  -0.598114  -0.551078  9.322347  -1.553567  -1.587264  9.322347  -1.553567  -1.587264  -29.59914  17.243635  -4.592737  -169.965253  63.756119  -103.976265  -32.531359  -5.616013  72.507248  48.569744  -13.433329  6.442086  1.028913  -13.40627  18.899951  103.758946  38.579013  28.732581  -27.209365  -11.934174  -106.661872  74.986747  26.667048  14.288035  7.582229  0.502626  10.590649  5.679952  0.508668  7.938156  
0.0  93.25843  0.0  -0.907057  -20.916334  -91.215891  38.251289  -20.143796  -24.482868  4.838701  11.577663  24.423948  2.182153  1.422065  1.727733  4.060405  15.974586  12.133135  -33.792534  -5.431986  4.347141  4.936194  3.661176  -2.799635  3.597627  -0.526568  -0.590301  9.847204  -1.347879  -1.687861  9.847205  -1.347879  -1.687862  -29.778998  17.122216  -4.601714  -172.77288  62.351115  -106.914569  -31.280661  -5.796154  71.557518  49.758631  -13.093585  5.591605  0.550302  -13.935576  18.258329  104.005572  39.561529  28.32725  -28.343158  -11.662542  -105.212884  75.1703  26.184906  13.680659  7.063185  0.319593  10.719329  5.293704  0.363801  8.037062  
0.0  93.25843  0.0  -0.794756  -20.262683  -91.229596  38.239048  -20.066406  -24.302027  6.017388  12.093856  24.501259  2.766874  1.352413  1.884137  3.418186  16.33369  12.452652  -34.076261  -5.45202  4.21098  4.800802  3.591621  -2.779429  3.708088  -0.460861  -0.643749  10.148097  -1.15767  -1.825594  10.148097  -1.15767  -1.825594  -29.469672  17.13406  -4.331239  -176.30471  60.894183  -110.057813  -30.054041  -6.220553  70.716427  50.971088  -12.639359  4.88287  0.897737  -14.438617  17.96438  103.313229  41.360931  27.652824  -29.307809  -11.515479  -103.558904  75.157355  25.774308  12.863514  6.577359  0.192944  10.816794  4.931433  0.261282  8.11163  
0.0  93.25843  0.0  -0.655711  -19.587266  -91.325589  37.968523  -19.991424  -24.044479  8.412114  11.921307  25.532371  3.645755  0.927974  2.02359  2.821519  16.792593  12.833149  -34.327581  -5.546054  4.214823  4.312523  3.49094  -2.744561  3.794536  -0.388971  -0.685311  10.382723  -0.952771  -1.928983  10.382723  -0.952771  -1.928983  -29.210771  17.075197  -4.048149  -179.939217  59.258147  -113.593556  -29.066562  -6.69059  70.041325  52.085753  -12.053708  4.419395  0.851882  -15.048576  17.28075  103.194919  42.736155  27.048719  -30.045864  -11.562501  -101.69324  75.163051  25.490632  12.04962  6.189274  0.039486  10.872619  4.642998  0.13982  8.15506  
0.0  93.25843  0.0  -0.546592  -18.672483  -91.472021  37.511068  -19.92203  -23.684468  9.997724  12.001197  25.813103  4.459029  0.754856  2.191185  1.997174  17.294819  13.158142  -34.372315  -5.599275  4.435894  4.049022  3.582905  -2.695722  3.8581  -0.313953  -0.710759  10.554327  -0.742387  -1.987185  10.554327  -0.742387  -1.987184  -29.01252  17.039805  -3.645527  176.658483  57.495637  -117.017319  -28.311745  -6.863446  69.48836  53.075258  -11.393455  3.984234  1.331422  -15.580109  16.902215  102.568729  44.742273  26.276723  -30.692478  -11.752845  -99.616531  75.190465  25.341957  11.233938  5.793896  -0.108781  10.876565  4.348991  0.021562  8.159324  
0.0  93.25843  0.0  -0.39197  -18.052201  -91.730204  37.344076  -19.773163  -23.21432  12.148514  11.488066  26.459042  4.724797  0.656857  2.24129  1.500722  17.816227  13.519117  -34.482828  -5.586163  4.775371  3.745348  3.694482  -2.636634  3.964462  -0.232029  -0.73066  10.842539  -0.512664  -2.029026  10.842539  -0.512664  -2.029026  -29.139318  17.008378  -3.211571  174.035716  55.709791  -120.420524  -27.866875  -6.282722  69.105192  54.046994  -10.621534  3.338475  1.666095  -16.187946  16.50024  102.410057  46.594042  25.718318  -31.43745  -11.995468  -97.322189  75.204625  25.26976  10.373155  5.393664  -0.343622  10.876273  4.052875  -0.161783  8.160968  
